<?xml version="1.0" encoding="UTF-8"?>
<svg width="400px" height="400px" viewBox="0 0 400 400" version="1.1" xmlns="http://www.w3.org/2000/svg" xmlns:xlink="http://www.w3.org/1999/xlink">
    <!-- Generator: Sketch 52.2 (67145) - http://www.bohemiancoding.com/sketch -->
    <title>a10</title>
    <desc>Created with Sketch.</desc>
    <g id="Page-1" stroke="none" stroke-width="1" fill="none" fill-rule="evenodd">
        <g id="a10">
            <path d="M200,400 C310.45695,400 400,310.45695 400,200 C400,89.54305 310.45695,0 200,0 C89.54305,0 0,89.54305 0,200 C0,310.45695 89.54305,400 200,400 Z" id="Oval-3" fill="#287EF1"></path>
            <g id="3" transform="translate(50.000000, 69.000000)" fill="#FFFFFF">
                <g id="Group" transform="translate(150.000000, 110.272563) scale(-1, 1) rotate(-180.000000) translate(-150.000000, -110.272563) translate(0.000000, 0.772563)">
                    <path d="M144.490208,218.202944 C138.471471,217.364992 127.043491,214.089362 121.253314,211.423151 C107.539737,205.328956 93.749974,194.054695 85.2932684,182.171015 C79.1983454,173.562964 72.9510494,159.470138 71.3511321,150.709732 C70.7416398,147.357925 69.7512148,146.824683 63.1991726,146.062909 C54.3615343,145.072602 41.3336365,139.968713 32.4198116,134.103051 C24.7249714,128.999162 13.5255504,116.048997 8.95435818,106.983882 C1.71663716,92.5101687 -0.873705103,74.1514059 2.32612945,59.1444503 C8.19249281,31.7205722 26.1725156,12.2191477 53.8282285,3.30638735 C59.4660323,1.47812881 60.989763,1.32577393 74.0176609,1.32577393 C86.7408126,1.32577393 88.645476,1.47812881 93.8261605,3.07785504 C101.216255,5.36317821 108.301603,8.79116298 114.015593,12.6762124 C118.510599,15.72331 138.852404,32.1014594 141.061814,34.3867826 C141.671306,35.0723795 146.166312,38.8812515 150.966063,42.7663009 C155.765815,46.7275277 164.374894,53.9643845 170.088884,58.7635631 C175.726688,63.5627418 184.107207,70.6472437 188.678399,74.3799382 C193.173405,78.1888102 199.344514,83.2926986 202.315789,85.8065541 C215.49606,96.9284602 220.829118,100.20409 228.600145,101.879994 C235.456933,103.327365 240.332871,103.17501 247.037287,101.499107 C253.741702,99.7470255 258.541454,97.23317 263.722138,92.5101687 C268.674263,88.0156998 271.340792,84.054473 273.931134,77.3508583 C282.311653,55.1832235 268.902823,30.8826204 245.437369,25.7025545 C244.370758,25.4740222 225.17175,25.093135 202.772909,24.8646027 C176.33618,24.5598929 161.098873,24.1028283 159.346582,23.5695862 C155.613442,22.3507472 151.651742,19.7607142 148.909027,16.6374392 C146.166312,13.5141642 143.195037,6.04877517 143.499783,3.23020991 L143.728342,1.24959649 L193.630524,1.02106417 C226.619295,0.868709296 245.132623,1.09724161 248.332458,1.63048369 C263.569765,4.22051662 279.188005,13.8950514 288.10183,26.311974 C291.911157,31.5682173 296.482349,41.1665747 298.463199,48.0987216 C300.367863,54.9546912 300.367863,73.0849217 298.463199,79.7123589 C291.83497,102.260881 274.693,119.400805 253.284583,124.961758 C248.408644,126.180597 244.751691,126.561484 236.675918,126.561484 C226.924041,126.561484 226.009802,126.409129 218.238776,123.819096 C205.210878,119.476982 201.706297,117.115482 174.202957,93.0434108 C164.984386,84.9686023 155.918188,77.122326 154.013525,75.5987772 C152.108861,74.0752284 145.937752,68.8951626 140.299948,64.0959839 C112.339489,40.2524454 100.759135,31.6443948 90.626326,27.3022807 C85.2932684,24.9407801 84.6837761,24.8646027 74.7795262,24.8646027 C65.0276495,24.9407801 64.1895976,25.093135 59.0089131,27.3022807 C51.3902594,30.5017332 47.4285594,33.0155887 42.400248,37.5100576 C34.5530347,44.7469143 27.8486194,55.792643 25.6392098,65.0862906 C24.2678521,70.7234211 24.1916656,80.7788431 25.3344637,86.3397962 C27.2391271,95.4049114 34.6292212,105.688866 43.9239787,112.240126 C54.8186535,119.934047 67.6941783,123.438209 80.2649569,121.990838 C99.8448969,119.705515 117.748733,103.403543 122.091366,83.6735858 C122.624672,81.2359077 123.31035,79.1029394 123.691283,78.8744071 C124.910268,78.1126327 129.786206,84.1306504 132.376548,89.6154261 C134.738331,94.4907822 134.966891,95.4810889 134.966891,102.108526 C134.966891,108.964496 134.814517,109.650093 131.919429,115.591933 C126.814931,126.104419 116.605935,134.788648 101.444814,141.416085 C94.2070932,144.615537 94.2832797,144.463182 96.1117566,150.4812 C102.282866,170.363512 118.815345,186.360774 139.309523,192.226437 C144.261648,193.673808 147.08055,193.978518 156.299121,193.978518 C165.746252,193.978518 168.184221,193.673808 173.060159,192.150259 C196.297053,184.837225 212.829531,166.935527 217.47691,143.92994 C218.086403,140.95902 218.848268,139.130762 219.45776,139.130762 C221.819543,139.130762 225.705056,143.244343 228.371585,148.424409 C230.733368,153.071233 231.266673,154.975669 231.57142,159.927203 C232.257098,172.648835 228.447772,181.637773 217.324537,192.835856 C200.487312,209.899603 178.850336,218.88854 155.613442,218.660008 C150.737504,218.583831 145.785379,218.355298 144.490208,218.202944 Z" id="Path"></path>
                </g>
            </g>
        </g>
    </g>
</svg>